# xmcd
#
# Track frame offsets:
#	150
#	11908
#	24775
#	45050
#	57646
#	76250
#	84373
#	101929
#	112009
#	128001
#	142862
#	157710
#
# Disc length: 2314 seconds
#
# Revision: 1
# Processed by: cddbd v1.5.1PL0 Copyright (c) Steve Scherf et al.
# Submitted via: audiograbber 1.83.01
#
DISCID=8509080c
DTITLE=Various Artist - Country Volume 1
DYEAR=2000
DGENRE=Country
TTITLE0=tammy wynette - D.I.V.O.R.C.E.
TTITLE1=faron young - four in the morning
TTITLE2=dottie west - fall to pieces
TTITLE3=charlie rich - behind closed doors
TTITLE4=ed bruce - mama don't let your babies grow up as cowboys
TTITLE5=skip devol - duellin' banjos
TTITLE6=tanya tucker - the night they drove old dixie down
TTITLE7=freddy fender - before the night they drove
TTITLE8=george jones - he stopped loving her day
TTITLE9=gene watson - love in the hot afternoon
TTITLE10=mel tillis - detroit city
TTITLE11=sylvia - nobody
EXTD=
EXTT0=
EXTT1=
EXTT2=
EXTT3=
EXTT4=
EXTT5=
EXTT6=
EXTT7=
EXTT8=
EXTT9=
EXTT10=
EXTT11=
PLAYORDER=
